<?xml version="1.0" encoding="UTF-8"?>
<svg id="Layer_2" data-name="Layer 2" xmlns="http://www.w3.org/2000/svg" viewBox="0 0 100.68 108">
  <defs>
    <style>
      .cls-1 {
        fill: #404041;
      }

      .cls-2 {
        fill: #494949;
      }
    </style>
  </defs>
  <g id="images">
    <g>
      <path class="cls-2" d="m45.61,76.96c-8.05,11.55-21.7,13.9-31.89,8.81C3.35,80.6-2.12,68.98.77,57.73c1.67-6.49,5.43-11.53,11.15-15.03,4.89-2.99,8.17-3.46,18.84-3.03-4.82-7.02-6.3-14.5-3.81-22.56,1.54-4.99,4.53-9.03,8.69-12.13,9.02-6.72,20.86-6.64,29.73.23,5.29,4.1,8.33,9.56,9.3,16.22.96,6.67-1.01,12.57-4.9,18.5,8.6-1.6,16.06-.24,22.41,5.27,4.26,3.69,6.92,8.34,8.03,13.88,2.25,11.2-3.54,22.34-14.27,27.17-9.61,4.33-23.12,2.31-31.38-10.35,1.59,8.21,3.36,15.7,8.27,22.06,1.34,1.74,3.15,2.85,4.86,4.11,1.24.92,2.44,1.94,1.89,3.71-.56,1.83-2.12,2.19-3.79,2.19-10.27,0-20.55.02-30.82,0-1.63,0-3.25-.28-3.82-2.14-.48-1.58.25-2.87,1.55-3.65,5.96-3.6,8.75-9.35,10.79-15.62,1.02-3.14,1.93-6.31,2.12-9.61Z"/>
      <path class="cls-1" d="m100.2,59.09c-1.11-5.55-3.77-10.19-8.03-13.88-6.35-5.51-13.81-6.87-22.41-5.27,3.89-5.93,5.87-11.83,4.9-18.5-.96-6.66-4-12.12-9.3-16.22C60.26,1.25,54.17-.44,48.2.11v107.87c5.86,0,11.72,0,17.58,0,1.67,0,3.23-.36,3.79-2.19.54-1.77-.65-2.79-1.89-3.71-1.71-1.27-3.52-2.37-4.86-4.11-4.91-6.36-6.68-13.85-8.27-22.06,8.26,12.65,21.78,14.67,31.38,10.35,10.73-4.84,16.52-15.97,14.27-27.17Z"/>
    </g>
  </g>
</svg>