<?xml version="1.0" encoding="UTF-8"?>
<svg id="Layer_2" data-name="Layer 2" xmlns="http://www.w3.org/2000/svg" viewBox="0 0 115.2 108">
  <defs>
    <style>
      .cls-1 {
        fill: #d24b4b;
      }

      .cls-2 {
        fill: #d65c5c;
      }
    </style>
  </defs>
  <g id="images">
    <g>
      <path class="cls-2" d="m115.17,35.86c-.18,11.26-4.29,20.87-10.89,29.34-5.52,7.09-12.37,12.69-18.81,18.74-7.83,7.34-15.72,14.6-23.59,21.89-3.04,2.82-5.31,2.95-8.3.15-12.95-12.14-26.36-23.72-38.88-36.39C7.36,62.14,2.31,53.01.64,42.26c-1.91-12.32.35-23.87,8.69-33.01C19.85-2.28,35.98-3,48.24,6.92c2.76,2.23,5.23,4.79,7.39,7.69,1.78,2.38,2.1,2.29,3.93.05,5.83-7.15,12.56-12.79,21.61-14.19,13.89-2.15,26.33,5.79,31.46,19.95.85,2.34,1.44,4.74,1.87,7.19.48,2.71.79,5.45.66,8.25Z"/>
      <path class="cls-1" d="m112.64,20.36C107.51,6.21,95.07-1.74,81.17.41c-9.05,1.4-15.78,7.04-21.61,14.19-.91,1.11-1.44,1.69-1.97,1.71v91.62c1.36,0,2.72-.73,4.29-2.18,7.87-7.29,15.76-14.54,23.59-21.89,6.44-6.04,13.29-11.65,18.81-18.74,6.59-8.46,10.71-18.08,10.89-29.34.12-2.8-.19-5.54-.66-8.25-.43-2.45-1.03-4.85-1.87-7.19Z"/>
    </g>
  </g>
</svg>