<?xml version="1.0" encoding="UTF-8"?>
<svg id="Layer_2" data-name="Layer 2" xmlns="http://www.w3.org/2000/svg" viewBox="0 0 144 145">
  <defs>
    <style>
      .cls-1 {
        fill: none;
        stroke-width: 6px;
      }

      .cls-1, .cls-2, .cls-3, .cls-4 {
        stroke-miterlimit: 10;
      }

      .cls-1, .cls-2, .cls-4 {
        stroke: #f2f2f8;
      }

      .cls-5 {
        fill: #e383b9;
      }

      .cls-6 {
        fill: #e44e9c;
      }

      .cls-2 {
        stroke-linecap: round;
      }

      .cls-2, .cls-4 {
        fill: #f2f2f8;
      }

      .cls-3 {
        fill: #1f451f;
        stroke: #231f20;
      }
    </style>
  </defs>
  <g id="Layer_5" data-name="Layer 5">
    <g>
      <g>
        <circle class="cls-6" cx="72" cy="72.5" r="72"/>
        <path class="cls-5" d="M138.82,45.67C128.18,19.2,102.28,.5,72,.5S15.63,19.34,5.07,45.98l66.5,26.87,67.25-27.17Z"/>
      </g>
      <polygon class="cls-3" points="72.02 72.5 72 72.5 72 72.5 72 72.5 72.02 72.5 72.02 72.5"/>
      <polygon class="cls-3" points="72.02 72.5 72.27 72.57 72.24 72.44 72.02 72.5"/>
      <polygon class="cls-3" points="72.02 72.5 72.01 72.51 72.34 72.84 72.27 72.57 72.02 72.5 72.02 72.5"/>
      <polygon class="cls-3" points="72.02 72.48 72 72.5 72.02 72.5 72.02 72.48"/>
      <polygon class="cls-3" points="71.99 72.51 72 72.5 72 72.5 71.99 72.51"/>
      <polygon class="cls-3" points="71.99 72.49 72 72.5 72 72.5 71.99 72.49"/>
      <g>
        <circle class="cls-4" cx="72" cy="72.5" r="36"/>
        <g>
          <path class="cls-4" d="M56.15,131.72l-2.52,9.4c-.14,.51,.17,1.05,.69,1.18,5.66,1.43,11.58,2.2,17.68,2.2s12.2-.8,17.94-2.27c.51-.13,.82-.67,.68-1.18l-2.48-9.26c-.23-.87-1.12-1.38-1.99-1.17-4.43,1.06-9.05,1.62-13.8,1.62s-9.62-.6-14.16-1.71c-.89-.22-1.8,.3-2.03,1.19Z"/>
          <path class="cls-4" d="M115.55,116.05l6.6,6.6c.42,.42,1.1,.42,1.51,0,8.18-8.43,14.31-18.86,17.6-30.48,.16-.57-.18-1.16-.75-1.31l-9.07-2.43c-.92-.25-1.85,.3-2.12,1.21-2.67,9.09-7.46,17.28-13.8,23.99-.65,.69-.65,1.76,.02,2.43Z"/>
          <path class="cls-4" d="M2.73,92.14c3.29,11.64,9.43,22.09,17.63,30.53,.4,.41,1.06,.41,1.47,0l7.01-7.01c.65-.65,.65-1.69,.03-2.36-6.22-6.68-10.91-14.78-13.54-23.77-.28-.94-1.24-1.5-2.18-1.25l-9.68,2.59c-.55,.15-.88,.72-.73,1.27Z"/>
          <path class="cls-2" d="M131.29,56.62l9.27-2.48c.55-.15,.88-.72,.72-1.26-3.29-11.65-9.44-22.1-17.64-30.55-.4-.41-1.05-.41-1.46,0l-7.08,7.08c-.61,.61-.61,1.6,0,2.22,6.4,6.63,11.26,14.75,14.03,23.78,.28,.92,1.23,1.47,2.16,1.22Z"/>
          <path class="cls-4" d="M87.77,13.7l2.65-9.89c.13-.47-.15-.96-.63-1.08-5.69-1.45-11.65-2.23-17.8-2.23s-11.93,.75-17.54,2.16c-.47,.12-.76,.61-.63,1.08l2.7,10.08c.24,.91,1.17,1.44,2.08,1.22,4.41-1.05,9-1.61,13.73-1.61s9.04,.52,13.32,1.5c.93,.21,1.86-.33,2.11-1.25Z"/>
          <path class="cls-4" d="M20.4,22.29C12.17,30.75,6.01,41.23,2.71,52.91c-.15,.52,.17,1.06,.69,1.2l10.05,2.69c.88,.24,1.77-.28,2.04-1.15,2.71-8.98,7.48-17.06,13.76-23.69,.6-.63,.6-1.61-.01-2.23l-7.45-7.45c-.38-.38-1-.38-1.38,0Z"/>
        </g>
        <circle class="cls-1" cx="71.99" cy="72.84" r="48.6"/>
      </g>
    </g>
  </g>
</svg>