<?xml version="1.0" encoding="UTF-8"?>
<svg id="Layer_2" data-name="Layer 2" xmlns="http://www.w3.org/2000/svg" viewBox="0 0 180 252">
  <defs>
    <style>
      .cls-1 {
        fill: #fff;
      }

      .cls-2, .cls-3 {
        fill: #404041;
      }

      .cls-4 {
        fill: #494949;
      }

      .cls-3 {
        font-family: Lato-Heavy, Lato;
        font-size: 43.72px;
        font-weight: 800;
      }
    </style>
  </defs>
  <g id="images">
    <g>
      <rect class="cls-1" width="180" height="252" rx="10.62" ry="10.62"/>
      <text class="cls-3" transform="translate(10.3 47.18) scale(1.01 1)"><tspan x="0" y="0">8</tspan></text>
      <text class="cls-3" transform="translate(170.95 208.54) rotate(-180) scale(1.01 1)"><tspan x="0" y="0">8</tspan></text>
      <g>
        <path class="cls-4" d="m85.82,142.88c-6.71,9.63-18.08,11.58-26.57,7.34-8.64-4.31-13.2-13.99-10.8-23.36,1.39-5.41,4.53-9.61,9.29-12.52,4.08-2.49,6.81-2.89,15.7-2.52-4.01-5.85-5.25-12.08-3.18-18.8,1.29-4.16,3.78-7.53,7.24-10.11,7.51-5.6,17.38-5.54,24.77.19,4.41,3.42,6.94,7.97,7.75,13.52.8,5.56-.84,10.48-4.08,15.42,7.17-1.33,13.38-.2,18.67,4.39,3.55,3.08,5.76,6.95,6.69,11.57,1.87,9.34-2.95,18.61-11.89,22.64-8,3.61-19.27,1.92-26.15-8.62,1.32,6.85,2.8,13.09,6.89,18.39,1.12,1.45,2.63,2.37,4.05,3.43,1.04.77,2.03,1.62,1.58,3.09-.47,1.53-1.77,1.82-3.16,1.83-8.56,0-17.12.01-25.69,0-1.36,0-2.71-.24-3.18-1.78-.4-1.31.21-2.39,1.29-3.04,4.97-3,7.29-7.79,8.99-13.02.85-2.62,1.6-5.26,1.77-8.01Z"/>
        <path class="cls-2" d="m131.31,127.99c-.93-4.62-3.15-8.49-6.69-11.57-5.29-4.59-11.51-5.72-18.67-4.39,3.24-4.94,4.89-9.86,4.08-15.42-.8-5.55-3.34-10.1-7.75-13.52-4.26-3.3-9.33-4.7-14.31-4.25v89.9c4.88,0,9.77,0,14.65,0,1.39,0,2.69-.3,3.16-1.83.45-1.47-.54-2.32-1.58-3.09-1.42-1.05-2.93-1.98-4.05-3.43-4.09-5.3-5.57-11.54-6.89-18.39,6.88,10.54,18.15,12.23,26.15,8.62,8.94-4.03,13.76-13.31,11.89-22.64Z"/>
      </g>
    </g>
  </g>
</svg>