<?xml version="1.0" encoding="UTF-8"?>
<svg id="Layer_2" data-name="Layer 2" xmlns="http://www.w3.org/2000/svg" viewBox="0 0 180 252">
  <defs>
    <style>
      .cls-1 {
        fill: #fff;
      }

      .cls-2, .cls-3 {
        fill: #d24b4b;
      }

      .cls-4 {
        fill: #d65c5c;
      }

      .cls-3 {
        font-family: Lato-Heavy, Lato;
        font-size: 43.72px;
        font-weight: 800;
      }
    </style>
  </defs>
  <g id="images">
    <g>
      <rect class="cls-1" width="180" height="252" rx="10.62" ry="10.62"/>
      <text class="cls-3" transform="translate(10.3 47.18) scale(1.01 1)"><tspan x="0" y="0">3</tspan></text>
      <text class="cls-3" transform="translate(170.95 208.55) rotate(-180) scale(1.01 1)"><tspan x="0" y="0">3</tspan></text>
      <g>
        <path class="cls-4" d="m136.7,125c-.02,1.75-.81,3.17-1.91,4.47-7.02,8.25-14.03,16.51-21.04,24.76-5.98,7.05-11.96,14.1-17.95,21.15-.61.72-1.25,1.44-1.94,2.08-2.28,2.09-5.05,2.09-7.12-.24-4.51-5.09-8.91-10.27-13.32-15.44-8.93-10.46-17.81-20.96-26.76-31.4-3.37-3.93-3.43-6.69-.06-10.65,13.12-15.41,26.22-30.83,39.32-46.25,2.89-3.4,6.22-3.26,9.14.19,12.51,14.79,25.08,29.52,37.59,44.3,1.76,2.08,4,3.94,4.05,7.04Z"/>
        <path class="cls-2" d="m94.5,73.68c-1.31-1.55-2.7-2.42-4.1-2.62v107.89c.99-.15,1.98-.64,2.89-1.47.7-.64,1.33-1.35,1.94-2.08,5.99-7.04,11.97-14.1,17.95-21.15,7.01-8.26,14.02-16.51,21.04-24.76,1.1-1.3,1.89-2.72,1.91-4.47-.05-3.1-2.28-4.95-4.05-7.04-12.52-14.78-25.08-29.52-37.59-44.3Z"/>
      </g>
    </g>
  </g>
</svg>