<?xml version="1.0" encoding="UTF-8"?>
<svg id="Layer_2" data-name="Layer 2" xmlns="http://www.w3.org/2000/svg" viewBox="0 0 180 252">
  <defs>
    <style>
      .cls-1 {
        fill: #fff;
      }

      .cls-2, .cls-3 {
        fill: #d24b4b;
      }

      .cls-4 {
        fill: #d65c5c;
      }

      .cls-3 {
        font-family: Lato-Heavy, Lato;
        font-size: 43.72px;
        font-weight: 800;
      }
    </style>
  </defs>
  <g id="images">
    <g>
      <rect class="cls-1" width="180" height="252" rx="10.62" ry="10.62"/>
      <text class="cls-3" transform="translate(10.3 47.18) scale(1.01 1)"><tspan x="0" y="0">Q</tspan></text>
      <text class="cls-3" transform="translate(170.95 208.56) rotate(-180) scale(1.01 1)"><tspan x="0" y="0">Q</tspan></text>
      <g>
        <path class="cls-4" d="m136.11,109.88c-.15,9.38-3.58,17.4-9.07,24.45-4.6,5.91-10.31,10.58-15.67,15.61-6.52,6.12-13.1,12.16-19.66,18.24-2.54,2.35-4.43,2.46-6.92.12-10.79-10.12-21.97-19.76-32.4-30.32-6.12-6.2-10.33-13.8-11.72-22.77-1.59-10.26.29-19.9,7.24-27.51,8.77-9.61,22.21-10.21,32.43-1.94,2.3,1.86,4.36,3.99,6.16,6.41,1.48,1.98,1.75,1.91,3.27.04,4.85-5.96,10.46-10.66,18.01-11.83,11.58-1.79,21.95,4.83,26.22,16.62.71,1.95,1.2,3.95,1.56,5.99.4,2.26.66,4.54.55,6.87Z"/>
        <path class="cls-2" d="m134,96.97c-4.27-11.8-14.64-18.42-26.22-16.62-7.54,1.17-13.15,5.87-18.01,11.83-.75.93-1.2,1.41-1.64,1.42v76.35c1.13,0,2.27-.6,3.57-1.81,6.56-6.07,13.13-12.12,19.66-18.24,5.37-5.04,11.07-9.71,15.67-15.61,5.49-7.05,8.93-15.07,9.07-24.45.1-2.33-.15-4.61-.55-6.87-.36-2.04-.85-4.04-1.56-5.99Z"/>
      </g>
    </g>
  </g>
</svg>