<?xml version="1.0" encoding="UTF-8"?>
<svg id="Layer_2" data-name="Layer 2" xmlns="http://www.w3.org/2000/svg" viewBox="0 0 180 252">
  <defs>
    <style>
      .cls-1 {
        fill: #fff;
      }

      .cls-2, .cls-3 {
        fill: #404041;
      }

      .cls-4 {
        fill: #494949;
      }

      .cls-3 {
        font-family: Lato-Heavy, Lato;
        font-size: 43.72px;
        font-weight: 800;
      }
    </style>
  </defs>
  <g id="images">
    <g>
      <rect class="cls-1" width="180" height="252" rx="10.62" ry="10.62"/>
      <text class="cls-3" transform="translate(10.3 47.18) scale(1.01 1)"><tspan x="0" y="0">5</tspan></text>
      <text class="cls-3" transform="translate(170.95 208.55) rotate(-180) scale(1.01 1)"><tspan x="0" y="0">5</tspan></text>
      <g>
        <path class="cls-4" d="m92.9,145.23c.94,4.58,2,8.87,4.08,12.77,1.29,2.42,2.94,4.44,5.12,5.93,1,.68,1.88,1.57,1.57,3.02-.33,1.52-1.52,2.02-2.75,2.03-7.78.04-15.56.04-23.34,0-1.15,0-2.26-.4-2.71-1.82-.41-1.28.14-2.3,1.02-2.9,5.54-3.76,7.5-9.93,9.08-16.37.16-.67.57-1.33.25-2.29-.94.76-1.81,1.49-2.71,2.19-7.66,5.93-17.09,5.69-23.92-.69-4.31-4.03-6.37-9.4-7.04-15.49-1.29-11.65,3.46-20.62,10.8-28.06,7.84-7.94,16.07-15.4,24.14-23.06,2.08-1.98,3.47-1.98,5.51-.05,7.88,7.5,15.8,14.95,23.62,22.54,5.58,5.41,9.79,11.93,11.12,20.17,1.4,8.7-.16,16.8-6.05,23.09-7.02,7.49-17.43,7.78-25.28,1.18-.79-.67-1.56-1.37-2.5-2.19Z"/>
        <path class="cls-2" d="m127.06,123.15c-1.32-8.24-5.54-14.76-11.12-20.17-7.82-7.58-15.74-15.04-23.62-22.54-1.01-.96-1.86-1.44-2.72-1.44v90c3.88,0,7.77-.01,11.65-.03,1.23,0,2.43-.51,2.75-2.03.31-1.45-.57-2.33-1.57-3.02-2.18-1.48-3.83-3.5-5.12-5.93-2.08-3.9-3.13-8.19-4.08-12.77.94.82,1.71,1.52,2.5,2.19,7.85,6.6,18.26,6.31,25.28-1.18,5.89-6.29,7.44-14.39,6.05-23.09Z"/>
      </g>
    </g>
  </g>
</svg>